<svg xmlns="http://www.w3.org/2000/svg" version="1.0" width="1024.000000pt" height="1024.000000pt" viewBox="0 0 1024.000000 1024.000000" preserveAspectRatio="xMidYMid meet">

<g transform="translate(0.000000,1024.000000) scale(0.100000,-0.100000)" fill="#1b3158" stroke="none">
<path d="M4950 9729 c-988 -62 -1948 -445 -2709 -1082 -880 -737 -1467 -1775 -1636 -2892 -40 -266 -49 -399 -49 -715 -1 -376 22 -613 89 -945 249 -1230 990 -2315 2053 -3008 538 -351 1174 -595 1813 -696 464 -74 1006 -75 1459 -5 991 154 1901 617 2609 1325 483 484 849 1053 1086 1689 388 1040 388 2233 0 3270 -545 1457 -1760 2547 -3262 2926 -472 119 -961 163 -1453 133z m595 -629 c1324 -95 2513 -825 3203 -1968 234 -387 413 -848 502 -1292 101 -504 103 -1084 5 -1583 -259 -1326 -1161 -2441 -2405 -2972 -503 -214 -1046 -325 -1595 -325 -1453 0 -2791 771 -3530 2035 -238 406 -419 915 -494 1390 -162 1013 61 2050 622 2895 698 1053 1837 1723 3088 1819 153 12 444 12 604 1z" fill="#1b3158"/>
<path d="M5251 8405 c-24 -7 -55 -25 -70 -38 -19 -17 -54 -30 -126 -46 -55 -12 -127 -28 -160 -36 -33 -8 -190 -44 -350 -80 -159 -36 -299 -67 -309 -70 -39 -9 -331 38 -399 64 -16 6 -46 11 -67 11 -69 0 -72 -11 -69 -292 l2 -243 -27 -70 c-32 -80 -120 -328 -164 -460 -49 -144 -91 -313 -101 -403 -23 -212 50 -447 242 -774 l28 -46 -169 -134 c-93 -73 -201 -158 -240 -188 l-71 -55 -5 -80 c-3 -44 -7 -305 -9 -579 -4 -437 -6 -500 -20 -507 -30 -17 -57 -75 -57 -122 0 -100 62 -162 161 -162 65 0 98 18 137 75 41 61 19 173 -43 214 l-25 17 2 536 3 537 190 158 c268 222 295 248 295 282 0 15 -35 95 -79 179 -149 284 -181 379 -188 558 -4 85 -1 139 12 205 20 102 177 599 237 749 l40 100 -4 173 c-3 94 -2 172 1 172 3 0 87 -14 186 -30 99 -16 192 -30 206 -30 29 0 124 24 322 81 75 21 199 50 275 64 75 14 175 32 221 41 l84 16 30 -37 c76 -93 197 -85 265 15 20 29 23 44 20 93 -8 112 -100 176 -207 142z" fill="#1b3158"/>
<path d="M5595 8134 c-266 -195 -266 -195 -300 -188 -48 11 -126 5 -154 -12 -47 -28 -75 -80 -75 -138 0 -64 23 -109 74 -142 65 -43 162 -33 212 23 23 25 48 86 48 116 0 19 35 50 186 161 104 76 193 135 200 132 35 -13 412 -98 434 -98 14 1 96 15 183 32 88 17 160 30 162 28 2 -2 -1 -66 -5 -143 -11 -165 -5 -228 27 -310 93 -231 177 -478 219 -643 40 -156 55 -338 35 -432 -15 -71 -64 -165 -120 -232 -79 -93 -146 -145 -347 -264 -12 -7 -34 -32 -50 -56 -157 -234 -336 -495 -376 -545 -84 -109 -80 -114 217 -261 132 -65 275 -136 319 -157 l78 -37 -7 -296 -8 -296 -33 -31 c-39 -37 -54 -72 -54 -126 0 -168 235 -227 311 -78 23 45 25 119 4 158 -8 16 -28 40 -45 54 l-30 26 0 328 0 329 -27 26 c-16 14 -149 82 -298 152 -148 70 -274 131 -279 136 -4 4 75 133 178 287 l185 278 105 53 c192 97 262 163 336 317 61 127 81 210 87 370 6 152 -2 229 -43 390 -40 161 -110 352 -217 590 -46 102 -46 98 -22 328 9 92 14 178 11 191 -3 13 -17 31 -31 40 -24 16 -35 15 -203 -14 -97 -17 -199 -35 -225 -39 -40 -7 -87 0 -275 40 -125 27 -234 49 -242 48 -8 0 -73 -43 -145 -95z" fill="#1b3158"/>
<path d="M4010 7458 c0 -138 -3 -168 -16 -178 -8 -8 -47 -60 -85 -118 -133 -199 -186 -335 -175 -451 8 -93 41 -215 76 -288 70 -142 232 -253 412 -283 140 -22 395 56 650 200 38 22 71 40 73 40 2 0 -9 -28 -25 -62 -59 -123 -50 -177 62 -403 78 -156 218 -389 228 -378 24 25 162 268 221 388 106 216 114 279 50 404 -12 24 -19 42 -14 40 4 -2 78 -39 163 -81 278 -138 455 -181 600 -144 228 59 365 199 421 432 51 214 14 343 -178 616 l-83 118 0 156 0 156 -72 -7 c-402 -38 -820 -236 -1063 -503 l-51 -55 -33 41 c-43 55 -196 183 -298 249 -226 147 -527 253 -770 270 l-93 6 0 -165z m582 -298 c190 -58 305 -245 269 -436 -15 -82 -40 -132 -94 -192 -60 -65 -119 -99 -204 -118 -334 -74 -588 305 -396 593 94 142 263 203 425 153z m1488 -22 c84 -39 144 -98 187 -185 35 -70 37 -82 37 -162 -1 -139 -60 -253 -167 -324 -197 -131 -456 -60 -560 152 -30 61 -32 74 -32 166 0 88 3 107 27 157 46 100 126 171 237 214 60 23 204 13 271 -18z" fill="#1b3158"/>
<path d="M4394 6994 c-84 -30 -144 -114 -144 -202 0 -87 10 -114 65 -168 58 -58 123 -81 199 -70 119 18 216 153 191 266 l-7 30 -28 -30 c-47 -50 -124 -40 -156 22 -22 42 -11 90 27 122 l30 26 -26 10 c-37 14 -102 11 -151 -6z" fill="#1b3158"/>
<path d="M5850 6997 c-48 -15 -126 -95 -139 -143 -36 -131 35 -261 163 -295 105 -28 228 32 270 133 15 36 22 139 11 150 -3 3 -19 -7 -35 -23 -61 -62 -160 -18 -160 71 0 33 6 48 30 71 l29 30 -25 9 c-32 13 -99 11 -144 -3z" fill="#1b3158"/>
<path d="M6599 5860 c-109 -57 -138 -152 -73 -238 45 -58 125 -81 192 -53 25 11 45 5 183 -47 l154 -59 3 -762 2 -761 -262 0 c-145 0 -273 -3 -285 -6 -21 -6 -23 -13 -23 -64 0 -158 -162 -529 -346 -792 -103 -147 -217 -270 -309 -333 -53 -37 -55 -38 -106 -28 -118 24 -209 -45 -209 -157 0 -102 92 -175 197 -155 44 8 109 68 117 108 3 15 8 37 11 50 3 12 23 34 44 50 60 42 243 220 315 306 136 163 249 353 322 541 30 79 79 254 86 309 l3 24 262 -2 c170 -2 269 1 282 8 10 6 22 23 25 38 4 16 10 401 16 858 8 699 7 833 -4 851 -9 12 -84 51 -194 99 -144 62 -182 82 -186 100 -9 36 -45 74 -100 105 -59 35 -69 35 -117 10z" fill="#1b3158"/>
<path d="M4505 5485 c-47 -17 -92 -63 -100 -102 -4 -16 -10 -35 -14 -43 -4 -8 -149 -80 -321 -160 -222 -103 -318 -152 -329 -169 -24 -38 -22 -692 3 -914 10 -87 17 -159 15 -161 -2 -2 -111 -6 -241 -8 -283 -6 -288 -7 -288 -91 0 -73 34 -275 65 -382 104 -365 319 -717 624 -1023 205 -205 452 -395 648 -496 23 -12 34 -25 38 -50 13 -69 95 -136 167 -136 65 0 147 69 164 137 15 59 -31 144 -97 179 -38 19 -114 18 -149 -3 -33 -19 -20 -26 -210 111 -594 430 -943 893 -1055 1396 -12 58 -26 128 -29 157 l-6 51 72 4 c40 2 151 5 247 7 96 1 178 4 182 7 18 11 20 78 5 181 -23 161 -36 407 -36 695 l0 258 123 59 c67 32 198 96 291 141 l170 82 39 -22 c74 -42 182 -8 222 70 22 42 19 108 -8 154 -38 69 -118 98 -192 71z" fill="#1b3158"/>
<path d="M5149 5197 c-25 -12 -63 -30 -85 -39 -653 -280 -790 -340 -795 -346 -3 -4 -3 -68 2 -142 4 -74 12 -252 19 -395 19 -449 34 -535 126 -717 154 -307 505 -647 752 -729 l65 -22 56 24 c260 107 597 450 735 750 82 178 90 234 116 809 5 129 13 276 16 326 6 83 5 91 -12 97 -11 3 -224 94 -474 202 -250 108 -459 198 -465 200 -5 2 -31 -6 -56 -18z m135 -589 c54 -16 128 -90 144 -144 27 -90 7 -161 -66 -233 l-54 -54 6 -61 c4 -34 29 -157 57 -275 27 -118 49 -220 49 -228 0 -10 -30 -13 -137 -13 -76 0 -175 3 -220 7 -100 7 -97 -5 -47 183 69 265 82 316 88 355 7 39 6 41 -39 73 -32 22 -54 48 -70 85 -43 92 -28 174 46 249 65 65 148 84 243 56z" fill="#1b3158"/>
<path d="M3915 3623 c-57 -15 -115 -91 -115 -152 0 -79 60 -150 140 -166 33 -6 38 -13 88 -113 73 -150 167 -277 307 -418 204 -206 416 -345 700 -460 61 -24 81 -38 86 -56 4 -12 7 -141 8 -285 1 -260 1 -262 24 -289 19 -21 32 -27 60 -26 124 5 432 150 717 338 530 349 913 781 1071 1207 33 89 40 101 76 123 49 28 73 75 73 139 0 91 -64 155 -153 155 -102 0 -175 -79 -164 -176 4 -38 13 -58 51 -109 15 -20 -105 -246 -227 -430 -117 -177 -213 -293 -376 -455 -154 -153 -284 -259 -453 -366 -142 -91 -414 -221 -531 -255 l-28 -8 1 264 c1 158 -3 272 -9 283 -5 10 -43 31 -83 47 -111 43 -284 131 -374 191 -234 155 -458 386 -664 685 -49 71 -50 73 -34 98 25 38 23 119 -4 163 -36 58 -116 88 -187 71z" fill="#1b3158"/>
</g>
</svg>